<svg xmlns="http://www.w3.org/2000/svg" width="48" height="48" viewBox="0 0 48 48" fill="none">
<path d="M23.865 42.2587C14.5655 42.2587 4.53271 36.4257 4.53271 23.6264C4.53271 10.8271 14.5655 4.99414 23.865 4.99414C29.0314 4.99414 33.7978 6.69404 37.331 9.79387C41.1641 13.1937 43.1973 17.9934 43.1973 23.6264C43.1973 29.2594 41.1641 34.0258 37.331 37.4256C33.7978 40.5254 28.9981 42.2587 23.865 42.2587Z" fill="url(#paint0_radial_718_125)"/>
<path d="M39.8274 12.5527C41.604 15.4192 42.5306 18.8324 42.5306 22.6288C42.5306 28.2618 40.4974 33.0282 36.6643 36.428C33.1311 39.5279 28.3314 41.2611 23.1983 41.2611C17.1786 41.2611 10.8523 38.8112 7.13916 33.6149C10.7256 39.5012 17.4686 42.261 23.8649 42.261C28.998 42.261 33.7977 40.5278 37.3309 37.428C41.164 34.0282 43.1972 29.2618 43.1972 23.6288C43.1972 19.3823 42.0406 15.6092 39.8274 12.5527Z" fill="#EB8F00"/>
<path opacity="0.8" d="M11.7486 32.4375C14.97 32.4375 17.5816 29.826 17.5816 26.6045C17.5816 23.383 14.97 20.7715 11.7486 20.7715C8.52706 20.7715 5.91553 23.383 5.91553 26.6045C5.91553 29.826 8.52706 32.4375 11.7486 32.4375Z" fill="url(#paint1_radial_718_125)"/>
<path opacity="0.8" d="M36.2471 32.4375C39.4686 32.4375 42.0801 29.826 42.0801 26.6045C42.0801 23.383 39.4686 20.7715 36.2471 20.7715C33.0256 20.7715 30.4141 23.383 30.4141 26.6045C30.4141 29.826 33.0256 32.4375 36.2471 32.4375Z" fill="url(#paint2_radial_718_125)"/>
<path d="M18.9836 21.6279C18.9836 21.6279 18.9669 21.6045 18.9303 21.5612C18.8969 21.5179 18.8503 21.4579 18.7903 21.3812C18.7403 21.3279 18.6803 21.2646 18.6103 21.1912C18.5403 21.1112 18.4536 21.0279 18.367 20.9413C18.277 20.8579 18.1836 20.7713 18.087 20.7013C17.9936 20.6246 17.8903 20.5679 17.807 20.5213C17.7203 20.4679 17.6403 20.4546 17.5903 20.4379C17.5637 20.4279 17.5403 20.4279 17.5203 20.4246C17.5103 20.4279 17.5003 20.4213 17.4903 20.4246L17.477 20.4279H17.4703H17.467C17.507 20.4279 17.377 20.4313 17.557 20.4246L17.3737 20.4313C17.327 20.4313 17.357 20.4346 17.3603 20.4346C17.3703 20.4346 17.377 20.4346 17.3837 20.4313C17.4103 20.4213 17.3837 20.4313 17.377 20.4313C17.367 20.4313 17.3537 20.4346 17.3403 20.4413C17.287 20.4579 17.207 20.4713 17.1237 20.5246C17.0404 20.5713 16.937 20.6279 16.8437 20.7046C16.7504 20.7779 16.6537 20.8613 16.5637 20.9446C16.3904 21.1146 16.2371 21.2846 16.1304 21.4079C16.0204 21.5345 15.9604 21.6079 15.9604 21.6079L15.8838 21.6979C15.4271 22.2312 14.5872 22.3212 14.0105 21.9012C13.6172 21.6145 13.4472 21.1679 13.5205 20.7413C13.5205 20.7413 13.5439 20.6046 13.6105 20.368C13.6805 20.1313 13.7972 19.7946 14.0272 19.398C14.2572 19.0047 14.5905 18.5414 15.1538 18.1181C15.4304 17.9114 15.7671 17.7048 16.1671 17.5648C16.2637 17.5281 16.3671 17.4948 16.4737 17.4681C16.5837 17.4415 16.6704 17.4115 16.8204 17.3915L17.027 17.3615C17.0904 17.3548 17.1837 17.3448 17.197 17.3448L17.3803 17.3315L17.4837 17.3281H17.4937H17.5137L17.557 17.3315H17.637L17.807 17.3415C17.9203 17.3515 18.0303 17.3715 18.1403 17.3881C18.357 17.4281 18.5736 17.4848 18.7703 17.5581C19.1702 17.6981 19.5069 17.9014 19.7836 18.1114C20.3469 18.5347 20.6802 18.998 20.9102 19.3913C21.0268 19.588 21.1135 19.7747 21.1768 19.938C21.2468 20.0946 21.2968 20.2613 21.3368 20.3846C21.3735 20.5046 21.3735 20.5679 21.3901 20.6246C21.4001 20.6779 21.4035 20.7079 21.4035 20.7079C21.5268 21.3812 21.0302 22.0179 20.3002 22.1278C19.7769 22.2112 19.2736 22.0012 18.9836 21.6279Z" fill="#422B0D"/>
<path d="M32.1495 21.6279C32.1495 21.6279 32.1329 21.6045 32.0962 21.5612C32.0629 21.5179 32.0162 21.4579 31.9562 21.3812C31.9062 21.3279 31.8462 21.2646 31.7762 21.1912C31.7062 21.1112 31.6196 21.0279 31.5329 20.9413C31.4429 20.8579 31.3496 20.7713 31.2529 20.7013C31.1596 20.6246 31.0562 20.5679 30.9729 20.5213C30.8863 20.4679 30.8063 20.4546 30.7563 20.4379C30.7296 20.4279 30.7063 20.4279 30.6863 20.4246C30.6763 20.4279 30.6663 20.4213 30.6563 20.4246L30.6429 20.4279H30.6363H30.6329H30.6296C30.6696 20.4279 30.5396 20.4313 30.7196 20.4246L30.5363 20.4313C30.4896 20.4313 30.5196 20.4346 30.5229 20.4346C30.5329 20.4346 30.5396 20.4346 30.5463 20.4313C30.5729 20.4213 30.5463 20.4313 30.5396 20.4313C30.5296 20.4313 30.5163 20.4346 30.5029 20.4413C30.4496 20.4579 30.3696 20.4713 30.2863 20.5246C30.203 20.5713 30.0996 20.6279 30.0063 20.7046C29.913 20.7779 29.8163 20.8613 29.7263 20.9446C29.553 21.1146 29.3997 21.2846 29.293 21.4079C29.183 21.5345 29.123 21.6079 29.123 21.6079L29.0464 21.6979C28.5897 22.2312 27.7498 22.3212 27.1731 21.9012C26.7798 21.6145 26.6098 21.1679 26.6831 20.7413C26.6831 20.7413 26.7065 20.6046 26.7731 20.368C26.8431 20.1313 26.9598 19.7946 27.1898 19.398C27.4198 19.0047 27.7531 18.5414 28.3164 18.1181C28.593 17.9114 28.9297 17.7048 29.3297 17.5648C29.4263 17.5281 29.5297 17.4948 29.6363 17.4681C29.7463 17.4415 29.833 17.4115 29.983 17.3915L30.1896 17.3615C30.253 17.3548 30.3463 17.3448 30.3596 17.3448L30.5429 17.3315L30.6463 17.3281H30.6563H30.6763L30.7196 17.3315H30.7996L30.9696 17.3415C31.0829 17.3515 31.1929 17.3715 31.3029 17.3881C31.5196 17.4281 31.7362 17.4848 31.9329 17.5581C32.3328 17.6981 32.6695 17.9014 32.9461 18.1114C33.5095 18.5347 33.8428 18.998 34.0728 19.3913C34.1894 19.588 34.2761 19.7747 34.3394 19.938C34.4094 20.0946 34.4594 20.2613 34.4994 20.3846C34.5361 20.5046 34.5361 20.5679 34.5527 20.6246C34.5627 20.6779 34.5661 20.7079 34.5661 20.7079C34.6894 21.3812 34.1927 22.0179 33.4628 22.1278C32.9395 22.2112 32.4362 22.0012 32.1495 21.6279Z" fill="#422B0D"/>
<path d="M24.0043 33.9889C19.8145 33.9889 16.5014 32.0057 14.6748 29.8825C14.4915 29.6691 14.4481 29.3825 14.5648 29.1325C14.6815 28.8758 14.9348 28.7092 15.2081 28.7092C15.3314 28.7092 15.4581 28.7425 15.5681 28.8059C17.4513 29.8925 20.6145 31.2357 23.9943 31.2357H24.0476C27.4308 31.2357 30.5906 29.8891 32.4739 28.8059C32.5872 28.7425 32.7105 28.7059 32.8338 28.7092C33.1072 28.7092 33.3605 28.8758 33.4771 29.1325C33.5905 29.3825 33.5505 29.6725 33.3671 29.8825C31.5406 32.0023 28.2241 33.9889 24.0376 33.9889" fill="#422B0D"/>
<defs>
<radialGradient id="paint0_radial_718_125" cx="0" cy="0" r="1" gradientUnits="userSpaceOnUse" gradientTransform="translate(23.865 23.6264) scale(18.9856 18.9855)">
<stop offset="0.5" stop-color="#FDE030"/>
<stop offset="0.9188" stop-color="#F7C02B"/>
<stop offset="1" stop-color="#F4A223"/>
</radialGradient>
<radialGradient id="paint1_radial_718_125" cx="0" cy="0" r="1" gradientUnits="userSpaceOnUse" gradientTransform="translate(11.7487 26.604) scale(6.34567 6.02807)">
<stop stop-color="#ED7770"/>
<stop offset="0.9" stop-color="#ED7770" stop-opacity="0"/>
</radialGradient>
<radialGradient id="paint2_radial_718_125" cx="0" cy="0" r="1" gradientUnits="userSpaceOnUse" gradientTransform="translate(36.2479 26.604) scale(6.34567 6.02807)">
<stop stop-color="#ED7770"/>
<stop offset="0.9" stop-color="#ED7770" stop-opacity="0"/>
</radialGradient>
</defs>
</svg>