<svg xmlns="http://www.w3.org/2000/svg" width="48" height="48" viewBox="0 0 48 48" fill="none">
<path d="M23.866 42.2587C14.5665 42.2587 4.53369 36.4257 4.53369 23.6264C4.53369 10.8271 14.5665 4.99414 23.866 4.99414C29.0324 4.99414 33.7988 6.69404 37.332 9.79387C41.1651 13.1937 43.1983 17.9934 43.1983 23.6264C43.1983 29.2594 41.1651 34.0258 37.332 37.4256C33.7988 40.5254 28.9991 42.2587 23.866 42.2587Z" fill="url(#paint0_radial_758_465)"/>
<path d="M39.8289 12.5527C41.6055 15.4192 42.5321 18.8324 42.5321 22.6288C42.5321 28.2618 40.4989 33.0282 36.6657 36.428C33.1326 39.5279 28.3328 41.2611 23.1998 41.2611C17.1801 41.2611 10.8538 38.8112 7.14062 33.6149C10.7271 39.5012 17.4701 42.261 23.8664 42.261C28.9995 42.261 33.7992 40.5278 37.3324 37.428C41.1655 34.0282 43.1987 29.2618 43.1987 23.6288C43.1987 19.3823 42.0421 15.6092 39.8289 12.5527Z" fill="#EB8F00"/>
<path d="M12.0628 33.0563C9.61291 34.2662 7.42969 34.0762 7.42969 34.0762C8.11298 35.3295 8.78961 35.9328 9.45958 36.5961C9.45958 36.5961 10.6962 36.7061 12.2028 36.0494C13.7094 35.3928 14.5126 31.8463 12.0628 33.0563Z" fill="#EEEEEE"/>
<path d="M12.1668 25.7425C7.58369 25.4325 4.56052 22.6094 4.56052 22.6094C4.40719 24.2659 4.63718 25.8425 4.63718 25.8425C4.63718 25.8425 6.80707 28.5457 12.0801 28.8423C16.0966 29.069 15.9932 26.0025 12.1668 25.7425Z" fill="#EEEEEE"/>
<path d="M35.6435 33.0565C38.0934 34.2664 40.2766 34.0764 40.2766 34.0764C39.5933 35.3297 38.9167 35.933 38.2467 36.5963C38.2467 36.5963 37.0101 36.7062 35.5035 36.0496C33.9969 35.3897 33.1936 31.8465 35.6435 33.0565Z" fill="#EEEEEE"/>
<path d="M35.5396 25.7425C40.1227 25.4325 43.1459 22.6094 43.1459 22.6094C43.2992 24.2659 43.0692 25.8425 43.0692 25.8425C43.0692 25.8425 40.8994 28.5457 35.6263 28.8423C31.6098 29.069 31.7098 26.0025 35.5396 25.7425Z" fill="#EEEEEE"/>
<path d="M36.3256 34.956V31.3662V29.063L36.3223 26.2131C36.2989 25.6332 35.9356 25.4398 35.1923 25.1699C33.5258 24.5632 28.4794 23.06 23.9996 23.0566H23.9963H23.9929C19.5132 23.0566 14.4634 24.5632 12.8002 25.1699C12.0569 25.4398 11.6969 25.6332 11.6702 26.2131L11.6669 29.063V31.3662V34.956C11.6669 35.1393 11.6136 36.0559 12.7202 36.5892C13.9501 37.1825 18.9732 39.0391 23.9963 39.0391C29.0193 39.0391 34.0457 37.1825 35.2723 36.5892C36.3789 36.0559 36.3256 35.1393 36.3256 34.956Z" fill="#F5F5F5"/>
<path d="M12.8001 25.1644C12.5468 25.2078 12.3202 25.3278 12.1735 25.4911C12.0335 25.6611 11.9568 25.8611 11.9435 26.0811C11.9235 26.291 11.9468 26.5477 11.9602 26.7943L12.0035 27.5476C12.0702 28.5542 12.1068 29.5675 12.1202 30.5808C12.1302 31.5941 12.1168 32.6073 12.0535 33.624C12.0368 33.8806 12.0268 34.1273 12.0002 34.3939C11.9702 34.6472 11.9468 34.8839 11.9468 35.1205C11.9402 35.5905 12.0135 36.0805 12.4235 36.4171C12.1702 36.3538 11.9368 36.1705 11.7802 35.9405C11.6235 35.7105 11.5269 35.4439 11.4602 35.1772C11.3969 34.9105 11.3702 34.6406 11.3435 34.3872C11.3135 34.1439 11.2969 33.8873 11.2702 33.634C11.1735 32.6207 11.1269 31.6074 11.1169 30.5908C11.1069 29.5742 11.1302 28.5576 11.2235 27.5376C11.2735 27.021 11.3069 26.531 11.4669 25.9711C11.5635 25.6977 11.7469 25.4278 12.0002 25.2778C12.2602 25.1278 12.5501 25.0978 12.8001 25.1644Z" fill="#808080"/>
<path d="M35.1313 25.1646C35.3813 25.0979 35.6713 25.1279 35.928 25.2746C36.1813 25.4245 36.3646 25.6945 36.4613 25.9678C36.6213 26.5278 36.6546 27.0178 36.7046 27.5344C36.7979 28.5544 36.8213 29.571 36.8113 30.5876C36.8013 31.6042 36.7546 32.6175 36.6579 33.6307C36.6346 33.8807 36.6146 34.1407 36.5846 34.384C36.5579 34.6374 36.5313 34.9107 36.4679 35.174C36.4013 35.4373 36.3046 35.704 36.148 35.9373C35.9913 36.1673 35.758 36.3506 35.5047 36.4139C35.9146 36.0773 35.988 35.5873 35.9813 35.1173C35.9813 34.8773 35.958 34.644 35.928 34.3907C35.9013 34.1274 35.8913 33.8774 35.8746 33.6207C35.8113 32.6041 35.798 31.5909 35.808 30.5776C35.8213 29.5643 35.858 28.5544 35.9246 27.5444L35.968 26.7911C35.9813 26.5445 36.0046 26.2878 35.9846 26.0778C35.9713 25.8579 35.898 25.6579 35.7546 25.4879C35.6113 25.3279 35.388 25.2079 35.1313 25.1646Z" fill="#808080"/>
<path d="M17.5557 16.6406C16.1591 16.6406 14.8892 17.8206 14.8892 19.7804C14.8892 21.7403 16.1591 22.9203 17.5557 22.9203C18.9523 22.9203 20.2222 21.7403 20.2222 19.7804C20.2222 17.8206 18.9523 16.6406 17.5557 16.6406Z" fill="#422B0D"/>
<path d="M17.4255 17.9543C17.0821 17.7143 16.5655 17.791 16.2322 18.2709C15.8989 18.7543 16.0089 19.2609 16.3522 19.5009C16.6955 19.7409 17.2121 19.6642 17.5455 19.1842C17.8788 18.7009 17.7688 18.1943 17.4255 17.9543Z" fill="#896024"/>
<path d="M30.3399 16.6406C28.9433 16.6406 27.6733 17.8206 27.6733 19.7804C27.6733 21.7403 28.9433 22.9203 30.3399 22.9203C31.7365 22.9203 33.0064 21.7403 33.0064 19.7804C33.0064 17.8206 31.7365 16.6406 30.3399 16.6406Z" fill="#422B0D"/>
<path d="M30.2082 17.9543C29.8649 17.7143 29.3482 17.791 29.0149 18.2709C28.6816 18.7543 28.7916 19.2609 29.1349 19.5009C29.4782 19.7409 29.9949 19.6642 30.3282 19.1842C30.6648 18.7009 30.5548 18.1943 30.2082 17.9543Z" fill="#896024"/>
<defs>
<radialGradient id="paint0_radial_758_465" cx="0" cy="0" r="1" gradientUnits="userSpaceOnUse" gradientTransform="translate(23.866 23.6265) scale(18.9856 18.9855)">
<stop offset="0.5" stop-color="#FDE030"/>
<stop offset="0.9188" stop-color="#F7C02B"/>
<stop offset="1" stop-color="#F4A223"/>
</radialGradient>
</defs>
</svg>