<svg xmlns="http://www.w3.org/2000/svg" width="48" height="48" viewBox="0 0 48 48" fill="none">
<path d="M23.8675 42.2587C14.568 42.2587 4.53516 36.4257 4.53516 23.6264C4.53516 10.8271 14.568 4.99414 23.8675 4.99414C29.0339 4.99414 33.8003 6.69404 37.3334 9.79387C41.1665 13.1937 43.1998 17.9934 43.1998 23.6264C43.1998 29.2594 41.1665 34.0258 37.3334 37.4256C33.8003 40.5254 29.0005 42.2587 23.8675 42.2587Z" fill="url(#paint0_radial_758_494)"/>
<path d="M39.8304 12.5527C41.6069 15.4192 42.5335 18.8324 42.5335 22.6288C42.5335 28.2618 40.5003 33.0282 36.6672 36.428C33.134 39.5279 28.3343 41.2611 23.2012 41.2611C17.1816 41.2611 10.8686 38.8112 7.14209 33.6149C10.7286 39.5012 17.4749 42.261 23.8679 42.261C29.0009 42.261 33.8007 40.5278 37.3338 37.428C41.1669 34.0282 43.2002 29.2618 43.2002 23.6288C43.2002 19.3823 42.0436 15.6092 39.8304 12.5527Z" fill="#EB8F00"/>
<path d="M32.3335 31.9946H15.6677C14.9311 31.9946 14.3345 31.398 14.3345 30.6614C14.3345 29.9248 14.9311 29.3281 15.6677 29.3281H32.3335C33.0701 29.3281 33.6668 29.9248 33.6668 30.6614C33.6668 31.398 33.0701 31.9946 32.3335 31.9946Z" fill="#422B0D"/>
<path d="M17.5571 17.9746C16.1606 17.9746 14.8906 19.1545 14.8906 21.1144C14.8906 23.0743 16.1606 24.2509 17.5571 24.2509C18.9537 24.2509 20.2237 23.071 20.2237 21.1144C20.2237 19.1579 18.9537 17.9746 17.5571 17.9746Z" fill="#422B0D"/>
<path d="M17.4287 19.2809C16.9554 19.0543 16.3854 19.2542 16.1554 19.7275C15.9787 20.0975 16.0587 20.5408 16.3554 20.8275C16.8287 21.0541 17.3987 20.8542 17.6287 20.3808C17.8053 20.0109 17.7253 19.5676 17.4287 19.2809Z" fill="#896024"/>
<path d="M30.333 17.9746C28.9364 17.9746 27.6665 19.1545 27.6665 21.1144C27.6665 23.0743 28.9364 24.2509 30.333 24.2509C31.7296 24.2509 32.9996 23.071 32.9996 21.1144C32.9996 19.1579 31.7363 17.9746 30.333 17.9746Z" fill="#422B0D"/>
<path d="M30.2099 19.2809C29.7366 19.0543 29.1666 19.2542 28.9366 19.7275C28.76 20.0975 28.84 20.5408 29.1366 20.8275C29.6099 21.0541 30.1799 20.8542 30.4099 20.3808C30.5866 20.0109 30.5066 19.5676 30.2099 19.2809Z" fill="#896024"/>
<defs>
<radialGradient id="paint0_radial_758_494" cx="0" cy="0" r="1" gradientUnits="userSpaceOnUse" gradientTransform="translate(23.8675 23.6264) scale(18.9856 18.9855)">
<stop offset="0.5" stop-color="#FDE030"/>
<stop offset="0.92" stop-color="#F7C02B"/>
<stop offset="1" stop-color="#F4A223"/>
</radialGradient>
</defs>
</svg>