<svg xmlns="http://www.w3.org/2000/svg" width="48" height="48" viewBox="0 0 48 48" fill="none">
  <path d="M23.7918 4.02281C22.3852 4.05281 21.9786 5.58606 21.4753 6.83933C20.9719 8.09259 17.9754 14.9089 16.0355 18.3487C14.0956 21.7885 11.4691 26.295 11.8424 32.738C12.2191 39.181 17.2221 43.9907 24.2318 43.9374C30.5681 43.8907 36.1111 40.2376 36.3378 32.3013C36.5245 25.7317 32.9113 20.0553 31.1281 16.5821C30.0681 14.5156 26.5983 7.59929 26.2317 6.74266C25.575 5.20941 25.295 3.98948 23.7918 4.02281Z" fill="#4EC1F5"/>
  <path d="M18.4589 24.1388C17.4723 24.1821 15.1257 27.2353 15.1257 31.0851C15.1257 34.9349 16.9423 37.778 18.9255 37.3714C21.2254 36.9014 20.8488 34.5549 20.3788 32.6783C19.9755 31.0651 19.3455 29.1585 19.2055 27.4219C19.1189 26.2986 19.4922 24.0921 18.4589 24.1388Z" fill="#B3E2FB"/>
</svg>