<svg xmlns="http://www.w3.org/2000/svg" width="48" height="48" viewBox="0 0 48 48" fill="none">
<path d="M12.5092 17.7482C10.1293 20.8047 10.1693 26.2411 13.2125 28.9309C16.6656 31.9874 21.5221 31.9575 24.5786 29.1443C28.2417 25.7744 28.0317 20.1614 24.7919 16.9849C21.5354 13.7884 15.7157 13.6217 12.5092 17.7482Z" fill="#FCC11A"/>
<path d="M16.3291 16.6987C15.3892 16.2821 14.3592 17.4153 13.9093 18.192C13.4593 18.9686 13.0426 20.4918 13.9993 20.8785C14.9559 21.2651 15.6425 20.6085 16.3291 19.4752C17.0158 18.3419 17.4024 17.1787 16.3291 16.6987Z" fill="#FEE269"/>
<path d="M18.7791 12.4361C18.5525 12.8627 18.6291 13.1894 19.0791 13.2994C19.5324 13.406 22.3523 13.866 22.5889 13.8794C22.9322 13.8994 23.0622 13.6427 23.0189 13.3394C22.9756 13.0394 22.2856 8.81629 22.2223 8.42631C22.1589 8.03967 21.749 7.64969 21.359 8.16633C20.9757 8.68963 18.9491 12.1128 18.7791 12.4361Z" fill="#FFA722"/>
<path d="M26.082 15.3653C25.6387 15.5019 25.652 15.7753 25.8887 16.1186C26.1253 16.4619 27.7619 18.9618 27.9153 19.1351C28.0686 19.3084 28.3252 19.3517 28.5386 19.0918C28.7519 18.8318 31.4451 15.062 31.6417 14.8253C31.965 14.4387 31.7717 14.0287 31.2751 14.1587C30.8951 14.2587 26.362 15.282 26.082 15.3653Z" fill="#FFA722"/>
<path d="M9.27984 26.8288C9.57982 26.3321 9.9698 26.4621 10.2498 26.9354C10.4431 27.2587 12.0597 29.4353 12.2097 29.672C12.3597 29.9086 12.4263 30.3619 11.9497 30.4686C11.4764 30.5752 7.61993 31.5885 7.01662 31.6952C6.41332 31.8018 6.07001 31.3285 6.45665 30.8119C6.68331 30.5119 9.10651 27.1088 9.27984 26.8288Z" fill="#FFA722"/>
<path d="M8.45929 23.0783C9.00926 23.325 9.26925 23.235 9.38591 22.8417C9.5359 22.325 9.98921 19.9551 10.0092 19.4152C10.0225 19.0652 9.87921 18.7252 9.34258 18.8119C8.8026 18.8985 4.92614 19.4352 4.4295 19.6085C3.85287 19.8085 3.8962 20.4418 4.27951 20.6418C4.73282 20.8818 8.07264 22.905 8.45929 23.0783Z" fill="#FFA722"/>
<path d="M15.1591 14.0328C15.4691 13.7862 15.3758 13.4295 15.0958 13.2362C14.8158 13.0429 11.356 10.5397 10.916 10.1997C10.5294 9.8997 10.0527 10.0064 10.1827 10.6963C10.2761 11.1896 11.3793 15.5227 11.4527 15.8227C11.5393 16.166 11.796 16.3394 12.0993 16.1227C12.4026 15.9061 14.8358 14.2895 15.1591 14.0328Z" fill="#FFA722"/>
<path d="M39.041 29.7244C39.041 29.7244 39.5243 20.2416 31.8481 18.3917C24.1718 16.5417 21.9353 23.988 21.9353 23.988C21.9353 23.988 19.3754 23.3914 17.0022 25.3646C15.139 26.9145 14.8756 29.2411 14.8756 29.2411C14.8756 29.2411 12.4258 28.8678 10.3859 30.8477C8.90929 32.2809 9.05262 34.1208 9.05262 34.1208L12.0258 36.734L42.2409 35.9174L43.8308 34.2108C43.8308 34.2108 44.0841 32.3176 42.3175 30.8943C40.551 29.4677 39.041 29.7244 39.041 29.7244Z" fill="#E2EBEE"/>
<path d="M16.2124 33.4075C16.2124 33.4075 17.4157 34.7675 21.2321 34.6775C25.0486 34.5875 26.0519 33.5875 26.0519 33.5875C26.0519 33.5875 27.7251 35.3441 32.5615 34.9708C37.3979 34.5975 38.7879 33.5775 38.7879 33.5775C38.7879 33.5775 39.9678 34.4208 41.4611 34.4442C42.951 34.4675 43.8309 34.2075 43.8309 34.2075C43.8309 34.2075 43.6743 35.3941 43.1543 36.1541C42.6343 36.914 41.7677 37.494 40.3978 37.484C39.0245 37.474 34.8514 37.5107 30.615 37.504C26.3785 37.4973 14.2725 37.5673 12.4826 37.4907C11.1193 37.434 10.1294 36.6307 9.67273 35.9507C8.94277 34.8641 9.06277 33.7175 9.06277 33.7175C9.06277 33.7175 10.436 34.7941 12.2893 34.7141C14.8225 34.6075 16.2124 33.4075 16.2124 33.4075Z" fill="#B9CED3"/>
</svg>