<svg xmlns="http://www.w3.org/2000/svg" width="48" height="48" viewBox="0 0 48 48" fill="none">
<path d="M10.4831 23.4323C10.7231 23.1923 10.0598 20.3358 13.0163 18.1293C15.9728 15.9227 17.9893 17.2393 18.2727 17.1427C18.5526 17.0493 19.8692 11.2763 25.4056 9.77638C30.942 8.27646 36.715 11.0896 38.0749 15.7827C39.3182 20.0725 38.3549 22.9624 38.4983 23.149C38.6382 23.3357 41.3148 23.2423 42.8614 25.7289C44.4079 28.2154 43.848 29.7653 43.848 29.7653L33.9952 32.8152H18.2293C18.2293 32.8152 4.34006 29.1554 4.20006 28.4987C4.06007 27.8421 4.37672 25.7089 6.63994 24.4156C8.6065 23.2923 10.0598 23.8556 10.4831 23.4323Z" fill="#E4EAEE"/>
<path d="M14.3858 33.6121C14.3858 33.6121 9.1261 34.7121 5.56962 31.9589C3.42974 30.299 4.20969 27.6091 4.20969 27.6091C4.20969 27.6091 5.74295 29.159 8.83945 29.579C11.936 30.0023 15.4091 29.859 15.4091 29.859C15.4091 29.859 16.2757 31.3389 19.5389 32.0189C23.6287 32.8689 25.7852 30.7756 25.7852 30.7756C25.7852 30.7756 26.9052 32.1156 30.8483 32.2089C34.7914 32.3022 37.0013 29.549 37.3713 29.4857C37.5579 29.4557 38.6445 30.4423 40.7978 30.0957C42.8477 29.7657 43.9276 28.8757 43.9276 28.8757C43.9276 28.8757 44.2243 31.0823 42.161 32.4422C40.5511 33.5022 37.7513 33.6155 37.7513 33.6155C37.7513 33.6155 37.3246 35.2521 35.4014 36.442C33.6148 37.5519 30.535 37.9219 28.2551 37.242C25.3919 36.3887 24.6819 35.0854 24.6819 35.0854C24.6819 35.0854 22.5487 36.3353 19.2156 35.912C16.0657 35.5187 14.3858 33.6121 14.3858 33.6121Z" fill="#BACDD2"/>
</svg>