<svg xmlns="http://www.w3.org/2000/svg" width="40" height="40" viewBox="0 0 40 40" fill="none">
<path d="M19.9989 39.9979C31.0441 39.9979 39.9979 31.0441 39.9979 19.9989C39.9979 8.95383 31.0441 0 19.9989 0C8.95383 0 0 8.95383 0 19.9989C0 31.0441 8.95383 39.9979 19.9989 39.9979Z" fill="#22404C"/>
<path d="M20.0027 1.63706C19.9793 2.09037 18.8361 2.33036 17.5095 2.39702C16.1795 2.46368 15.0796 2.33036 14.9796 1.88705C14.8829 1.44707 15.9229 0.840436 17.3762 0.763773C18.8294 0.687111 20.0293 1.18375 20.0027 1.63706Z" fill="#1B2E35"/>
<path d="M38.4548 18.4889C38.4515 18.3556 38.4581 18.2223 38.4815 18.0856C38.8881 15.6757 39.0814 13.4192 36.3749 12.0393C36.0783 11.8859 35.7516 11.7626 35.525 11.5159C35.1083 11.066 35.145 10.3793 35.0383 9.77604C34.715 7.92947 32.6251 6.6062 30.8185 7.10618C30.2252 7.2695 29.6053 7.59615 29.0353 7.37283C28.5753 7.19284 28.3153 6.7162 28.0554 6.29622C27.3187 5.10295 26.1888 4.04301 24.7989 3.84968C23.4089 3.65303 21.829 4.61631 21.7424 6.01624C21.7057 6.6262 21.809 7.34617 22.2757 7.74281C24.2356 9.41272 25.4488 8.18279 26.3588 9.04608C27.4154 10.0494 25.2222 10.3193 25.5855 12.8692C25.7688 14.1425 27.0321 15.3357 28.3153 15.2291C28.8853 15.1791 29.7519 15.1491 30.0686 15.6257C30.3186 15.999 30.2552 16.3557 30.2552 16.969C30.2552 18.4822 30.4219 19.6722 31.8952 20.0155C32.0851 20.0588 32.2918 20.0822 32.4685 20.0055C32.8584 19.8355 32.8551 19.3122 32.8284 18.8856C32.7118 17.0123 31.3919 16.6323 31.1519 15.6024C30.8485 14.2891 32.6418 12.5126 34.1084 13.0092C35.275 13.4058 34.325 14.7591 35.1783 16.3224C35.7416 17.359 36.8482 17.8356 37.2582 18.6822C37.6682 19.5289 37.2882 20.1155 37.4882 20.6521C37.7982 21.4921 38.2915 21.5054 38.5681 21.2088C38.8715 20.8855 38.7715 20.2222 38.6981 19.8355C38.6181 19.3855 38.4681 18.9456 38.4548 18.4889Z" fill="#1B2E35"/>
<path d="M6.74592 32.6787C6.78259 32.6253 7.0759 32.5487 7.41589 32.8686C7.75587 33.1853 8.75915 34.1319 9.15913 34.4952C9.55911 34.8585 9.16913 35.1652 8.83581 35.1052C7.2359 34.8252 6.36261 33.2353 6.74592 32.6787Z" fill="#1B2E35"/>
<path d="M12.6794 36.8049C12.6961 36.7415 12.9427 36.5682 13.3727 36.7415C13.8027 36.9149 15.0793 37.4448 15.5826 37.6415C16.0859 37.8381 15.8292 38.2615 15.4993 38.3281C13.8993 38.6348 12.5194 37.4615 12.6794 36.8049Z" fill="#1B2E35"/>
<path d="M14.766 35.6116C14.966 35.7682 15.1693 36.0149 15.076 36.2482C14.9893 36.4615 14.716 36.5182 14.486 36.5248C13.7261 36.5482 12.9661 36.3548 12.3028 35.9915C11.8362 35.7349 10.6129 34.9449 10.7862 34.2816C11.0329 33.3417 14.2527 35.2149 14.766 35.6116Z" fill="#1B2E35"/>
<path d="M31.2348 33.998C31.1614 33.9547 31.0348 33.5914 31.4281 33.1414C31.8214 32.6914 32.988 31.3648 33.4313 30.8349C33.8746 30.3049 34.3179 30.7749 34.2713 31.1982C34.038 33.2347 32.0081 34.4413 31.2348 33.998Z" fill="#1B2E35"/>
<path d="M35.0015 30.0619C34.9348 30.0486 34.7448 29.8019 34.9315 29.3553C35.1181 28.9087 35.6748 27.5921 35.8814 27.0754C36.0881 26.5555 36.548 26.8021 36.618 27.1421C36.958 28.762 35.7081 30.2053 35.0015 30.0619Z" fill="#1B2E35"/>
<path d="M27.5021 3.106C27.4887 3.17267 27.2387 3.36932 26.7954 3.196C26.3521 3.02268 25.0455 2.49604 24.5289 2.30271C24.0122 2.10939 24.2656 1.64275 24.6022 1.56275C26.2288 1.17944 27.6554 2.39271 27.5021 3.106Z" fill="#1B2E35"/>
<path d="M17.489 3.82377C14.3225 3.24714 13.1892 5.1437 12.2192 5.55701C11.4459 5.88366 10.9126 5.31369 9.71936 6.04366C8.07278 7.04694 8.69608 7.77357 8.54609 8.62352C8.39276 9.47348 7.48281 9.83679 6.81618 9.90012C6.02622 9.97678 5.96289 9.49681 6.34287 8.92017C6.55286 8.60352 6.77618 8.40687 6.88284 8.03355C7.00617 7.60024 6.93951 7.1336 7.17949 6.73362C7.55614 6.10699 8.4361 6.02032 8.9794 5.53368C9.37271 5.18037 9.5627 4.63706 9.98268 4.31375C10.4027 3.99043 10.9493 3.87377 11.4726 3.78044C12.5392 3.59045 13.4392 2.7505 12.9559 2.72383C12.4692 2.69717 11.6593 2.54051 10.9793 3.04048C10.2227 3.59378 9.20605 3.76711 8.40276 4.22375C7.50281 4.74039 7.0295 5.86367 6.75618 6.16698C6.48286 6.4703 5.60291 6.5003 4.99628 7.12693C3.72968 8.42353 1.61646 13.1333 1.61646 14.8965C1.61646 16.5398 2.34642 18.1464 3.97633 18.593C4.22298 18.6597 4.4863 18.7363 4.6463 18.9363C5.01294 19.393 4.09632 20.7662 3.95633 21.3195C3.59968 22.7528 3.98966 23.8561 4.62296 24.646C5.99289 26.3493 7.35949 26.1193 8.73275 25.276C9.06606 25.0693 9.35271 24.7793 9.72269 24.6427C10.5027 24.3527 10.5227 24.8527 10.5993 25.436C10.9593 28.1225 12.0759 28.8158 12.8592 29.1191C14.4891 29.7491 16.4923 29.1491 17.5523 27.7592C18.6122 26.3693 18.7289 24.2927 17.7723 22.8294C16.3123 20.5962 13.4292 20.4729 12.8459 19.223C12.1892 17.8164 14.0058 17.6197 14.7991 16.3998C15.5057 15.3165 15.6524 13.8266 14.9791 12.7066C14.6458 12.1533 14.0925 11.6 14.2325 10.9701C14.3891 10.2668 16.3923 9.16349 17.8823 7.88356C18.9422 6.97694 21.4254 4.5404 17.489 3.82377ZM7.33615 14.9532C7.22283 15.1698 7.05283 15.3865 6.80951 15.4232C6.57953 15.4565 6.35954 15.3098 6.21621 15.1265C5.98956 14.8299 5.92289 14.4132 6.06622 14.0699C6.23621 13.6566 6.81618 13.3266 7.26616 13.5199C7.50948 13.6233 7.58281 13.8699 7.56947 14.1399C7.55281 14.4365 7.43615 14.7599 7.33615 14.9532ZM12.5025 15.9331C12.4559 16.1965 12.3726 16.4498 12.3126 16.6231C12.1492 17.1064 11.9126 17.613 11.4559 17.8364C11.2559 17.9364 11.0326 17.9697 10.8126 18.0064C10.356 18.0764 9.78602 18.0997 9.54937 17.703C9.46271 17.5597 9.44271 17.3864 9.42604 17.2197C9.34938 16.4998 9.31271 15.6631 9.84269 15.1732C10.2227 14.8199 10.6493 14.8632 11.1226 14.8599C11.3893 14.8599 12.0326 14.7732 12.2592 14.9199C12.5625 15.1165 12.5725 15.5365 12.5025 15.9331Z" fill="#1B2E35"/>
</svg>