<svg xmlns="http://www.w3.org/2000/svg" width="48" height="48" viewBox="0 0 48 48" fill="none">
<path d="M41.3299 3.99988H6.66506C5.19847 3.99988 3.99854 5.19981 3.99854 6.6664V41.3312C3.99854 42.7978 5.19847 43.9978 6.66506 43.9978H41.3299C42.7965 43.9978 43.9964 42.7978 43.9964 41.3312V6.6664C43.9964 5.19981 42.7965 3.99988 41.3299 3.99988Z" fill="#427687"/>
<path d="M39.23 3.99988H6.4984C5.13181 3.99988 3.99854 5.13315 3.99854 6.49975V39.1314C3.99854 40.5313 5.13181 41.6312 6.4984 41.6312H39.1967C40.5966 41.6312 41.6965 40.498 41.6965 39.1314V6.49975C41.7632 5.13315 40.5966 3.99988 39.23 3.99988Z" fill="#8CAFBF"/>
<path d="M22.5074 12.7727H33.8201C34.6201 12.7261 35.2801 13.386 35.2334 14.186V25.502C35.1634 26.6553 33.7735 27.152 32.9702 26.352L29.6703 23.0522C29.4104 22.7922 28.9871 22.7922 28.7271 23.0522L17.8843 33.8949C17.3643 34.4149 16.5177 34.4149 15.9977 33.8949L14.1112 32.0084C13.5912 31.4884 13.5912 30.6418 14.1112 30.1218L24.9573 19.279C25.2172 19.0191 25.2172 18.5957 24.9573 18.3358L21.6574 15.0359C20.8575 14.236 21.3508 12.8427 22.5074 12.7727Z" fill="#FAFAFA"/>
<path opacity="0.5" d="M15.8987 6.96576C15.8987 6.19914 15.3654 5.96582 12.2989 6.06581C9.73239 6.16581 8.46579 6.46579 7.69917 7.39907C6.93254 8.33236 6.73255 10.2323 6.69922 12.4988C6.69922 14.0987 6.69922 15.5986 7.53251 15.5986C8.66578 15.5986 8.66578 12.9654 9.59907 11.4989C11.399 8.59901 15.8987 7.96571 15.8987 6.96576Z" fill="#B4E1ED"/>
</svg>