<svg xmlns="http://www.w3.org/2000/svg" width="48" height="48" viewBox="0 0 48 48" fill="none">
<path d="M41.3314 3.99927H6.66653C5.19994 3.99927 4 5.1992 4 6.66579V41.3306C4 42.7972 5.19994 43.9972 6.66653 43.9972H41.3314C42.798 43.9972 43.9979 42.7972 43.9979 41.3306V6.66579C43.9979 5.1992 42.798 3.99927 41.3314 3.99927Z" fill="#427687"/>
<path d="M39.2315 3.99902H6.49987C5.13327 3.99902 4 5.1323 4 6.49889V39.1305C4 40.5304 5.13327 41.6304 6.49987 41.6304H39.1981C40.5981 41.6304 41.698 40.4971 41.698 39.1305V6.49889C41.7647 5.1323 40.5981 3.99902 39.2315 3.99902Z" fill="#8CAFBF"/>
<path d="M35.2349 21.5555V32.8682C35.2815 33.6682 34.6216 34.3281 33.8216 34.2815H22.5055C21.3523 34.2115 20.8556 32.8216 21.6556 32.0183L24.9554 28.7184C25.2154 28.4585 25.2154 28.0351 24.9554 27.7752L14.1126 16.9324C13.5927 16.4124 13.5927 15.5658 14.1126 15.0458L15.9992 13.1593C16.5192 12.6393 17.3658 12.6393 17.8858 13.1593L28.7285 24.0054C28.9885 24.2653 29.4118 24.2653 29.6718 24.0054L32.9716 20.7055C33.7716 19.9056 35.1649 20.3989 35.2349 21.5555Z" fill="#FAFAFA"/>
<path opacity="0.5" d="M15.9002 6.96625C15.9002 6.19963 15.3669 5.9663 12.3004 6.0663C9.73386 6.16629 8.46726 6.46628 7.70063 7.39956C6.934 8.33285 6.73402 10.2327 6.70068 12.4993C6.70068 14.0992 6.70068 15.5991 7.53397 15.5991C8.66725 15.5991 8.66725 12.9659 9.60053 11.4993C11.4004 8.5995 15.9002 7.9662 15.9002 6.96625Z" fill="#B4E1ED"/>
</svg>