<svg xmlns="http://www.w3.org/2000/svg" width="48" height="48" viewBox="0 0 48 48" fill="none">
<path d="M38.538 18.096C38.538 18.096 39.1113 7.32321 30.5751 5.18999C20.7056 2.72345 18.7624 12.163 18.7624 12.163C18.7624 12.163 14.9126 11.433 12.5161 14.0362C10.5062 16.2194 10.6962 18.356 10.6962 18.356C10.6962 18.356 8.04298 17.7827 5.95976 19.6059C3.87653 21.4291 4.18985 23.1424 4.18985 23.1424L10.3829 25.5356C10.3829 25.5356 41.6579 25.6922 41.8145 25.5889C41.9712 25.4856 43.8978 22.4657 43.8978 22.4657C43.8978 22.4657 43.5844 19.8625 41.7645 18.8226C39.9413 17.7827 38.538 18.096 38.538 18.096Z" fill="#E2EBEE"/>
<path d="M7.41663 27.1491C8.97655 27.2024 19.1793 27.4091 25.369 27.3557C31.5587 27.3024 40.9715 27.4024 42.2781 26.7858C43.3014 26.3025 43.9114 25.5025 44.008 24.3826C44.1014 23.3126 43.8947 22.466 43.8947 22.466C43.8947 22.466 42.4381 23.5193 39.6783 23.5593C37.9617 23.5826 34.4752 23.2993 35.1518 22.676C35.3418 22.4993 38.0384 20.4561 37.9084 18.5662C37.8784 18.1196 35.4618 20.3361 33.1719 21.2727C30.8821 22.2093 28.7088 22.9326 25.6823 22.7393C23.1325 22.5727 22.0259 21.536 22.0259 21.536C22.0259 21.536 20.7959 22.9793 17.0995 23.2893C13.403 23.6026 12.6064 22.2127 12.6064 22.2127C12.6064 22.2127 10.8165 23.5659 7.80995 23.5259C4.81011 23.4793 4.22014 22.3993 4.22014 22.3993C4.22014 22.3993 3.93682 24.3226 4.56345 25.4458C5.20342 26.5891 6.36669 27.1157 7.41663 27.1491Z" fill="#B9CED2"/>
<path d="M25.9955 29.8554C25.4255 29.6554 23.3923 31.2653 22.4757 32.8552C21.5557 34.4518 22.1557 35.6184 23.139 36.0984C24.2456 36.6384 25.8388 36.3051 26.2921 34.7318C26.7388 33.1752 26.6088 30.0721 25.9955 29.8554Z" fill="#4FC4F8"/>
<path d="M15.2197 29.0621C14.7031 28.8788 13.0265 30.4354 12.2732 31.2753C11.2633 32.4053 10.4833 34.5118 12.3999 35.3651C14.3298 36.2217 15.583 34.8185 15.6797 32.8786C15.773 31.072 15.6464 29.2154 15.2197 29.0621Z" fill="#4FC4F8"/>
<path d="M19.2894 36.5485C18.7395 36.2519 16.4296 38.3018 15.693 39.525C14.9597 40.7483 15.0063 42.3182 16.5062 42.9615C18.0062 43.6048 19.3294 42.7815 19.6061 40.6383C19.7994 39.1184 19.8194 36.8352 19.2894 36.5485Z" fill="#4FC4F8"/>
<path d="M30.4587 36.7253C30.062 36.502 27.3155 38.6218 26.6989 40.1651C25.4756 43.2283 29.6554 44.5949 30.6054 41.715C31.1587 40.0351 30.9487 37.0019 30.4587 36.7253Z" fill="#4FC4F8"/>
<path d="M37.2885 30.1223C36.7452 29.7889 34.462 31.6688 33.702 33.0821C32.7421 34.8687 33.4887 36.2153 34.5353 36.6419C35.6219 37.0819 37.0185 36.6586 37.4918 35.0487C38.1751 32.7288 37.8151 30.4489 37.2885 30.1223Z" fill="#4FC4F8"/>
<path d="M34.7986 33.0287C34.4387 33.072 33.992 33.5854 33.922 34.462C33.852 35.3386 34.4053 35.7819 34.9653 35.5586C35.4919 35.3486 35.5786 34.5986 35.5786 34.1253C35.5786 33.652 35.3553 32.9587 34.7986 33.0287Z" fill="#AEE6FD"/>
<path d="M23.6661 32.7521C23.2861 32.6454 22.5795 33.2321 22.4561 34.182C22.3595 34.9153 22.6428 35.3586 23.2128 35.4019C24.0061 35.4619 24.256 34.4853 24.236 33.8887C24.2227 33.5487 24.1627 32.8921 23.6661 32.7521Z" fill="#AEE6FD"/>
<path d="M16.8165 39.2616C16.4632 39.2349 15.8699 39.8282 15.8699 40.7515C15.8699 41.6748 16.3498 42.0748 16.9165 41.9515C17.4831 41.8248 17.5964 40.7415 17.5598 40.3116C17.5231 39.8816 17.3398 39.3016 16.8165 39.2616Z" fill="#AEE6FD"/>
<path d="M12.9694 32.1455C12.4928 32.0088 11.8828 32.6121 11.8095 33.2921C11.7328 33.972 12.0495 34.4653 12.5528 34.542C13.0561 34.6187 13.4861 34.012 13.5361 33.3054C13.5894 32.5988 13.4128 32.2688 12.9694 32.1455Z" fill="#AEE6FD"/>
<path d="M28.1325 39.6552C27.6925 39.6185 27.0625 40.2685 27.0792 41.2517C27.0958 42.235 27.6058 42.4017 27.9425 42.4217C28.4258 42.4517 28.7624 41.8817 28.8058 40.9884C28.8424 40.2385 28.6724 39.6985 28.1325 39.6552Z" fill="#AEE6FD"/>
</svg>