<svg xmlns="http://www.w3.org/2000/svg" width="48" height="48" viewBox="0 0 48 48" fill="none">
<path d="M15.1363 16.649C11.8998 20.8088 11.9565 28.1984 16.0929 31.8616C20.7893 36.018 27.399 35.9747 31.5554 32.1516C36.5385 27.5651 36.2519 19.9322 31.8454 15.6091C27.4157 11.2627 19.4994 11.036 15.1363 16.649Z" fill="#FCC11A"/>
<path d="M20.3326 15.2216C19.0527 14.655 17.6527 16.1982 17.0428 17.2515C16.4328 18.3081 15.8662 20.378 17.1661 20.908C18.466 21.4346 19.3993 20.5413 20.3359 18.9981C21.2659 17.4548 21.7959 15.8716 20.3326 15.2216Z" fill="#FEE269"/>
<path d="M23.6655 9.42278C23.3555 10.0027 23.4589 10.4494 24.0755 10.5961C24.6921 10.7427 28.5286 11.366 28.8519 11.386C29.3219 11.416 29.4952 11.0627 29.4385 10.6527C29.3785 10.2427 28.4419 4.4997 28.3553 3.97306C28.2686 3.44643 27.712 2.91979 27.182 3.62308C26.652 4.32638 23.8988 8.98614 23.6655 9.42278Z" fill="#FFA722"/>
<path d="M33.5979 13.4086C32.9946 13.5952 33.0113 13.9652 33.3346 14.4352C33.6579 14.9052 35.8845 18.3017 36.0878 18.5383C36.2945 18.7716 36.6444 18.8316 36.9378 18.4783C37.2311 18.1283 40.8909 12.9953 41.1575 12.6753C41.5975 12.1486 41.3342 11.592 40.6609 11.7653C40.1476 11.902 33.9779 13.2919 33.5979 13.4086Z" fill="#FFA722"/>
<path d="M38.1982 23.2851C37.7648 23.0384 37.2015 23.1084 37.0549 23.6651C36.9082 24.2217 36.2649 28.2648 36.2049 28.6182C36.1449 28.9715 36.4116 29.3214 36.8482 29.2348C37.2849 29.1481 43.3312 28.2515 43.7345 28.1515C44.4378 27.9749 44.6711 27.2716 43.9412 26.7449C43.4679 26.4016 38.6081 23.5184 38.1982 23.2851Z" fill="#FFA722"/>
<path d="M33.3617 32.8641C33.8284 32.6142 34.2417 32.8041 34.3583 33.3341C34.475 33.8608 35.7649 39.2538 35.9716 40.2504C36.0749 40.7504 35.5016 41.1604 35.035 40.8671C34.565 40.5737 29.4719 37.0239 29.1453 36.7339C28.6753 36.324 29.0019 35.8973 29.2319 35.6807C29.6986 35.2374 32.9217 33.1008 33.3617 32.8641Z" fill="#FFA722"/>
<path d="M19.1793 35.8245C18.5893 35.7679 18.416 36.2945 18.506 36.7611C18.5927 37.2311 19.4726 43.1741 19.5326 43.6174C19.6193 44.2607 20.2959 44.5274 20.7325 43.8808C21.1692 43.2341 24.1824 38.4144 24.4257 37.9611C24.8657 37.1411 24.5423 36.9645 24.1024 36.7611C23.6657 36.5578 19.7959 35.8845 19.1793 35.8245Z" fill="#FFA722"/>
<path d="M10.7427 28.9981C11.1527 28.3248 11.6793 28.5014 12.0627 29.1447C12.3226 29.5847 14.5225 32.5445 14.7292 32.8645C14.9358 33.1878 15.0225 33.8011 14.3792 33.9478C13.7292 34.0978 8.48618 35.4744 7.66622 35.621C6.84627 35.7677 6.37629 35.1244 6.90293 34.4211C7.20958 34.0078 10.5094 29.3814 10.7427 28.9981Z" fill="#FFA722"/>
<path d="M9.6293 23.8982C10.3793 24.2315 10.7326 24.1115 10.8892 23.5749C11.0959 22.8716 11.7092 19.6484 11.7392 18.9151C11.7592 18.4385 11.5625 17.9785 10.8292 18.0951C10.0959 18.2118 4.82289 18.9484 4.14959 19.1817C3.3663 19.4551 3.42296 20.315 3.94293 20.5883C4.55957 20.9117 9.09933 23.6648 9.6293 23.8982Z" fill="#FFA722"/>
<path d="M18.7426 11.5925C19.1659 11.2559 19.0359 10.7726 18.6559 10.5093C18.2759 10.2459 13.5695 6.84279 12.9729 6.37615C12.4462 5.96617 11.7996 6.11283 11.9763 7.04944C12.1029 7.72274 13.6028 13.6158 13.7062 14.0224C13.8228 14.4924 14.1761 14.7257 14.5861 14.4324C14.9894 14.1424 18.3026 11.9459 18.7426 11.5925Z" fill="#FFA722"/>
</svg>