<svg xmlns="http://www.w3.org/2000/svg" width="48" height="48" viewBox="0 0 48 48" fill="none">
<path d="M19.8799 29.2467C19.8799 29.2467 19.8799 10.721 19.8799 9.18419C19.8799 7.64733 19.8099 4.04688 24.1437 4.04688C28.4776 4.04688 28.3343 7.84069 28.3343 9.20419C28.3343 10.5677 28.2343 29.2734 28.2343 29.2734C28.2343 29.2734 32.1147 31.417 31.9747 36.4843C31.8514 41.0015 28.4443 44.0352 23.6904 43.9652C18.9364 43.8952 15.8594 40.0514 15.8594 36.1709C15.8594 31.1336 19.8799 29.2467 19.8799 29.2467Z" fill="#A8D0D6"/>
<path d="M25.4699 31.6569C25.4699 31.6569 18.6269 34.1967 18.6436 35.6733C18.6736 38.1165 19.8735 41.2597 23.88 41.303C27.2665 41.3397 29.1564 39.2031 29.1097 35.8833C29.0564 31.8402 25.9999 30.9636 25.9999 30.9636L25.4699 31.6569Z" fill="#DD0B2B"/>
<path d="M25.5876 18.4532L22.0078 17.0666C22.0078 17.0666 22.0078 10.2537 22.0478 9.29371C22.0878 8.33043 22.3545 6.99717 24.241 7.02383C26.1276 7.0505 26.3176 8.44709 26.3576 9.44704C26.3842 10.1003 26.2943 17.1266 26.2943 17.1266L25.5876 18.4532Z" fill="white"/>
<path d="M22.226 16.8776L26.2957 16.8943L26.2657 31.0861C26.2657 31.0861 28.8556 33.6664 27.5757 37.1635C26.4891 40.1372 22.7159 40.8473 20.3861 39.0104C17.7262 36.9135 18.6628 33.9731 19.6761 32.5296C20.6894 31.0861 22.166 30.8994 22.166 30.8994L22.226 16.8776Z" fill="#E7523C"/>
<path d="M23.5703 16.881C23.5703 16.881 23.497 32.4496 23.4903 33.3597C23.4803 34.4798 23.547 36.0067 21.6337 35.9967C19.7572 35.9867 19.5172 33.8498 20.3671 33.043C21.0004 32.4462 21.8904 32.5796 21.8904 32.5796L21.9937 16.8776L23.5703 16.881Z" fill="#FED0BE"/>
<path d="M22.2007 26.753C21.1241 26.753 20.4608 26.6664 20.4308 27.553C20.3974 28.4263 21.1341 28.3729 22.2007 28.3729C23.234 28.3729 23.9273 28.4463 23.9273 27.573C23.9306 26.6264 23.2273 26.753 22.2007 26.753Z" fill="#4B4A51"/>
<path d="M22.1265 22.0814C20.9933 22.0814 20.44 22.0281 20.4233 22.8614C20.4033 23.7813 21.0733 23.7014 22.1032 23.708C23.1365 23.7147 23.9298 23.708 23.9098 22.9581C23.8898 22.0381 23.3398 22.0814 22.1265 22.0814Z" fill="#4B4A51"/>
<path d="M22.1567 17.5056C21.0801 17.5056 20.4168 17.419 20.3868 18.3056C20.3535 19.1789 21.0901 19.1256 22.1567 19.1256C23.19 19.1256 23.8833 19.1989 23.8833 18.3256C23.8866 17.379 23.18 17.5056 22.1567 17.5056Z" fill="#4B4A51"/>
<path d="M22.1007 13.058C20.9641 13.058 20.4208 13.0047 20.3908 13.838C20.3574 14.7646 21.0741 14.6812 22.1107 14.6579C23.1473 14.6379 23.8806 14.7979 23.8906 13.9313C23.9006 13.018 23.3173 13.058 22.1007 13.058Z" fill="#4B4A51"/>
<path d="M22.1626 8.53463C21.086 8.53463 20.4227 8.44797 20.3927 9.33459C20.3594 10.2079 21.096 10.1545 22.1626 10.1545C23.1959 10.1545 23.8892 10.2279 23.8892 9.35458C23.8892 8.40463 23.1859 8.53463 22.1626 8.53463Z" fill="#4B4A51"/>
</svg>