<svg xmlns="http://www.w3.org/2000/svg" width="41" height="40" viewBox="0 0 41 40" fill="none">
<path d="M20.9755 39.9973C32.0206 39.9973 40.9745 31.0434 40.9745 19.9983C40.9745 8.95322 32.0206 -0.000610352 20.9755 -0.000610352C9.9304 -0.000610352 0.976562 8.95322 0.976562 19.9983C0.976562 31.0434 9.9304 39.9973 20.9755 39.9973Z" fill="#CC3333"/>
<path d="M19.6756 38.3975C30.0028 38.3975 38.3746 30.0257 38.3746 19.6985C38.3746 9.37134 30.0028 0.999512 19.6756 0.999512C9.34839 0.999512 0.976562 9.37134 0.976562 19.6985C0.976562 30.0257 9.34839 38.3975 19.6756 38.3975Z" fill="#F44336"/>
<path d="M7.64211 8.56585C9.14203 6.19931 12.3419 4.23274 15.675 3.63277C16.5083 3.49945 17.3416 3.43278 18.0416 3.69944C18.5749 3.89943 19.0082 4.3994 18.7082 4.96604C18.4749 5.43268 17.8416 5.63267 17.3416 5.79933C14.2151 6.8326 11.5186 8.86916 9.67534 11.599C9.00871 12.599 8.00876 15.3655 6.77549 14.6655C5.47556 13.8989 5.74221 11.499 7.64211 8.56585Z" fill="#FF8A80"/>
</svg>