<svg xmlns="http://www.w3.org/2000/svg" width="41" height="40" viewBox="0 0 41 40" fill="none">
<path d="M20.974 39.9973C32.0192 39.9973 40.973 31.0434 40.973 19.9983C40.973 8.95322 32.0192 -0.000610352 20.974 -0.000610352C9.92893 -0.000610352 0.975098 8.95322 0.975098 19.9983C0.975098 31.0434 9.92893 39.9973 20.974 39.9973Z" fill="#689F38"/>
<path d="M19.6741 38.3975C30.0013 38.3975 38.3731 30.0257 38.3731 19.6985C38.3731 9.37134 30.0013 0.999512 19.6741 0.999512C9.34693 0.999512 0.975098 9.37134 0.975098 19.6985C0.975098 30.0257 9.34693 38.3975 19.6741 38.3975Z" fill="#7CB342"/>
<path d="M7.64114 8.56585C9.14106 6.19931 12.3409 4.23274 15.674 3.63277C16.5073 3.49945 17.3406 3.43278 18.0406 3.69944C18.5739 3.89943 19.0072 4.3994 18.7072 4.96604C18.4739 5.43268 17.8406 5.63267 17.3406 5.79933C14.2141 6.8326 11.5176 8.86916 9.67436 11.599C9.00773 12.599 8.00778 15.3655 6.77452 14.6655C5.47458 13.8989 5.74124 11.499 7.64114 8.56585Z" fill="#AED581"/>
</svg>