<svg xmlns="http://www.w3.org/2000/svg" width="41" height="40" viewBox="0 0 41 40" fill="none">
<path d="M20.977 39.9973C32.0221 39.9973 40.9759 31.0434 40.9759 19.9983C40.9759 8.95322 32.0221 -0.000610352 20.977 -0.000610352C9.93186 -0.000610352 0.978027 8.95322 0.978027 19.9983C0.978027 31.0434 9.93186 39.9973 20.977 39.9973Z" fill="#F2A600"/>
<path d="M19.677 38.3975C30.0042 38.3975 38.3761 30.0257 38.3761 19.6985C38.3761 9.37134 30.0042 0.999512 19.677 0.999512C9.34986 0.999512 0.978027 9.37134 0.978027 19.6985C0.978027 30.0257 9.34986 38.3975 19.677 38.3975Z" fill="#FFCC32"/>
<path d="M7.64358 8.56585C9.1435 6.19931 12.3433 4.23274 15.6765 3.63277C16.5098 3.49945 17.3431 3.43278 18.043 3.69944C18.5763 3.89943 19.0096 4.3994 18.7097 4.96604C18.4763 5.43268 17.843 5.63267 17.3431 5.79933C14.2166 6.8326 11.52 8.86916 9.6768 11.599C9.01017 12.599 8.01023 15.3655 6.77696 14.6655C5.47703 13.8989 5.74368 11.499 7.64358 8.56585Z" fill="#FFF170"/>
</svg>